# xmcd
#
# Track frame offsets:
#	150
#	14255
#	29560
#
# Disc length: 658 seconds
#
# Revision: 2
# Processed by: cddbd v1.5.1PL0 Copyright (c) Steve Scherf et al.
# Submitted via: EasyCDDAExtractor 8.0.1.1
#
DISCID=1c029003
DTITLE=Mark Knight - Tringle
DYEAR=2005
DGENRE=Country
TTITLE0=Betty's Beauty World
TTITLE1=Dow Jones
TTITLE2=179 She Don't Need A Band To Dance
EXTD=
EXTT0=
EXTT1=
EXTT2=
PLAYORDER=
